<svg xmlns="http://www.w3.org/2000/svg" width="38.4" height="27" viewBox="0 0 38.4 27">
  <g id="youtube_fav" transform="translate(-115.8 -119)">
    <rect id="Rectangle_1" data-name="Rectangle 1" width="26" height="15" transform="translate(122 125)" fill="#fff"/>
    <path id="youtube_fav-2" data-name="youtube_fav" d="M38.648,8.725a4.825,4.825,0,0,0-3.395-3.417c-2.995-.808-15-.808-15-.808s-12.008,0-15,.808A4.825,4.825,0,0,0,1.852,8.725c-.8,3.014-.8,9.3-.8,9.3s0,6.289.8,9.3a4.753,4.753,0,0,0,3.395,3.362c2.995.808,15,.808,15,.808s12.008,0,15-.808a4.753,4.753,0,0,0,3.395-3.362c.8-3.014.8-9.3.8-9.3s0-6.289-.8-9.3ZM16.323,23.737V12.318l10.036,5.71L16.323,23.737Z" transform="translate(114.75 114.5)" fill="red"/>
  </g>
</svg>
